<svg width="600" height="370" viewBox="0 0 600 370" fill="none" xmlns="http://www.w3.org/2000/svg">
<rect x="12.5" y="12.5" width="575" height="344.13" stroke="#C17139" stroke-width="25"/>
<path d="M177.826 186.319C180.951 188.468 183.49 191.178 185.443 194.449C187.396 197.672 188.373 201.48 188.373 205.875C188.373 211.148 187.25 215.616 185.004 219.278C182.807 222.892 179.633 225.748 175.482 227.848C171.088 230.094 166.01 231.681 160.248 232.608C154.535 233.536 147.797 234 140.033 234H86.0537V228.287C87.5674 228.141 89.4717 227.921 91.7666 227.628C94.0615 227.335 95.6729 226.993 96.6006 226.603C98.4072 225.87 99.6279 224.918 100.263 223.746C100.946 222.525 101.288 220.963 101.288 219.059V145.816C101.288 144.059 101.02 142.594 100.482 141.422C99.9453 140.25 98.6514 139.225 96.6006 138.346C95.0869 137.711 93.3291 137.198 91.3271 136.808C89.3252 136.368 87.5674 136.026 86.0537 135.782V130.069H142.523C156.732 130.069 166.986 132.022 173.285 135.929C179.584 139.835 182.733 145.597 182.733 153.214C182.733 156.729 182.025 159.83 180.609 162.516C179.193 165.152 177.167 167.447 174.53 169.4C172.138 171.207 169.281 172.77 165.961 174.088C162.641 175.406 159.076 176.505 155.268 177.384V178.775C159.076 179.166 163.031 180.021 167.133 181.339C171.234 182.608 174.799 184.269 177.826 186.319ZM154.242 155.045C154.242 149.283 152.606 144.791 149.335 141.568C146.112 138.346 141.254 136.734 134.76 136.734C133.832 136.734 132.611 136.783 131.098 136.881C129.633 136.93 128.363 136.979 127.289 137.027V175.553H131.098C139.008 175.553 144.843 173.722 148.603 170.06C152.362 166.349 154.242 161.344 154.242 155.045ZM159.369 204.923C159.369 197.696 157.221 192.154 152.924 188.297C148.627 184.439 142.45 182.511 134.394 182.511C133.466 182.511 132.221 182.56 130.658 182.657C129.145 182.706 128.021 182.755 127.289 182.804V220.816C127.729 222.623 129.096 224.161 131.391 225.431C133.686 226.651 136.469 227.262 139.74 227.262C145.551 227.262 150.263 225.309 153.876 221.402C157.538 217.496 159.369 212.003 159.369 204.923ZM271.869 174.747C271.869 178.458 270.722 181.729 268.427 184.562C266.132 187.345 263.104 188.736 259.345 188.736C255.78 188.736 252.753 187.833 250.263 186.026C247.821 184.22 246.601 181.559 246.601 178.043C246.601 176.334 246.723 175.016 246.967 174.088C247.211 173.111 247.431 172.208 247.626 171.378C245.38 171.476 243.012 172.257 240.521 173.722C238.031 175.187 235.834 177.14 233.93 179.581V219.791C233.93 221.5 234.198 222.916 234.735 224.039C235.272 225.162 236.176 226.041 237.445 226.676C238.52 227.213 240.253 227.677 242.646 228.067C245.087 228.409 246.845 228.604 247.919 228.653V234H198.92V228.653C200.141 228.556 201.361 228.434 202.582 228.287C203.852 228.092 204.926 227.848 205.805 227.555C207.367 227.018 208.441 226.188 209.027 225.064C209.613 223.941 209.906 222.477 209.906 220.67V178.043C209.906 176.285 209.491 174.723 208.661 173.355C207.831 171.939 206.83 170.816 205.658 169.986C204.779 169.4 203.656 168.912 202.289 168.521C200.971 168.131 199.506 167.862 197.895 167.716V162.369L232.831 160.465L233.93 161.563V172.184H234.223C237.592 168.277 241.156 165.226 244.916 163.028C248.725 160.782 252.68 159.659 256.781 159.659C261.322 159.659 264.96 161.075 267.694 163.907C270.478 166.69 271.869 170.304 271.869 174.747ZM360.712 232.462C358.563 233.39 356.024 234.244 353.095 235.025C350.165 235.807 347.064 236.197 343.793 236.197C337.787 236.197 333.368 235.318 330.536 233.561C327.704 231.754 325.775 229.19 324.75 225.87H324.311C322.65 227.53 321.039 228.946 319.477 230.118C317.963 231.29 316.327 232.291 314.569 233.121C312.274 234.195 310.053 234.977 307.904 235.465C305.805 236.002 302.851 236.271 299.042 236.271C293.378 236.271 288.544 234.61 284.54 231.29C280.536 227.921 278.534 223.478 278.534 217.96C278.534 214.786 278.974 212.101 279.853 209.903C280.731 207.657 281.977 205.68 283.588 203.971C285.053 202.408 286.737 201.114 288.642 200.089C290.595 199.063 292.719 198.111 295.014 197.232C299.408 195.621 304.682 193.961 310.834 192.252C316.986 190.494 321.479 188.932 324.311 187.564V180.533C324.311 179.312 324.213 177.701 324.018 175.699C323.822 173.697 323.407 172.013 322.772 170.646C322.089 169.083 321.015 167.765 319.55 166.69C318.085 165.616 316.156 165.079 313.764 165.079C311.615 165.079 309.809 165.396 308.344 166.031C306.928 166.617 305.78 167.228 304.901 167.862C305.048 168.839 305.463 170.328 306.146 172.33C306.83 174.332 307.172 176.261 307.172 178.116C307.172 178.946 306.952 179.996 306.513 181.266C306.073 182.486 305.438 183.463 304.608 184.195C303.485 185.172 302.216 185.929 300.8 186.466C299.433 187.003 297.309 187.271 294.428 187.271C290.326 187.271 287.226 186.295 285.126 184.342C283.026 182.34 281.977 179.752 281.977 176.578C281.977 173.844 283.051 171.402 285.199 169.254C287.396 167.057 290.058 165.25 293.183 163.834C296.259 162.369 299.799 161.246 303.803 160.465C307.807 159.635 311.518 159.22 314.936 159.22C319.672 159.22 324.018 159.513 327.973 160.099C331.928 160.636 335.492 161.783 338.666 163.541C341.693 165.25 344.086 167.74 345.844 171.012C347.65 174.234 348.554 178.458 348.554 183.683C348.554 189.2 348.432 195.743 348.188 203.312C347.992 210.88 347.895 215.86 347.895 218.253C347.895 220.45 348.212 222.184 348.847 223.453C349.53 224.723 350.556 225.675 351.923 226.31C352.753 226.7 354.047 226.944 355.805 227.042C357.611 227.091 359.247 227.115 360.712 227.115V232.462ZM324.311 194.303C321.576 195.23 318.866 196.305 316.181 197.525C313.495 198.697 311.298 199.942 309.589 201.261C307.782 202.628 306.366 204.386 305.341 206.534C304.315 208.634 303.803 211.124 303.803 214.005C303.803 217.813 304.657 220.572 306.366 222.281C308.124 223.99 310.272 224.845 312.812 224.845C315.497 224.845 317.694 224.308 319.403 223.233C321.161 222.11 322.699 220.743 324.018 219.132L324.311 194.303ZM435.639 132.999C435.639 134.22 435.443 135.562 435.053 137.027C434.662 138.492 434.027 139.737 433.148 140.763C432.123 141.983 430.976 142.911 429.706 143.546C428.437 144.181 426.532 144.498 423.993 144.498C420.136 144.498 417.108 143.155 414.911 140.47C412.714 137.784 410.37 133.316 407.88 127.066C405.927 127.896 404.34 130.045 403.119 133.512C401.898 136.979 401.288 144.425 401.288 155.851V161.637H421.503V169.547H401.435V220.011C401.435 221.915 401.874 223.404 402.753 224.479C403.632 225.504 404.779 226.261 406.195 226.749C407.367 227.14 408.905 227.53 410.81 227.921C412.714 228.263 414.423 228.507 415.937 228.653V234H366.498V228.653C367.768 228.556 368.988 228.434 370.16 228.287C371.381 228.141 372.455 227.896 373.383 227.555C374.945 226.969 375.995 226.139 376.532 225.064C377.118 223.941 377.411 222.477 377.411 220.67V169.547H362.543V161.637H377.411C377.411 156.412 378.168 151.358 379.682 146.476C381.195 141.544 383.539 137.149 386.713 133.292C389.789 129.483 393.842 126.407 398.871 124.063C403.9 121.72 409.809 120.548 416.596 120.548C422.65 120.548 427.338 121.695 430.658 123.99C433.979 126.285 435.639 129.288 435.639 132.999ZM504.12 216.495C502.411 219.278 500.336 221.915 497.895 224.405C495.502 226.847 492.768 228.946 489.691 230.704C486.42 232.56 483.1 233.951 479.73 234.879C476.41 235.855 472.577 236.344 468.231 236.344C461.005 236.344 454.755 235.318 449.481 233.268C444.257 231.217 439.936 228.458 436.518 224.991C433.1 221.524 430.536 217.447 428.827 212.76C427.167 208.023 426.337 202.896 426.337 197.379C426.337 192.398 427.24 187.638 429.047 183.097C430.902 178.507 433.515 174.43 436.884 170.865C440.204 167.398 444.379 164.591 449.408 162.442C454.486 160.294 460.15 159.22 466.4 159.22C473.236 159.22 478.852 160.05 483.246 161.71C487.641 163.37 491.278 165.665 494.159 168.595C496.942 171.378 498.969 174.674 500.238 178.482C501.508 182.242 502.143 186.197 502.143 190.348V195.108H452.631C452.631 205.118 454.56 212.735 458.417 217.96C462.274 223.185 468.402 225.797 476.801 225.797C481.391 225.797 485.517 224.552 489.179 222.062C492.841 219.522 495.966 216.324 498.554 212.467L504.12 216.495ZM476.142 188.663C476.142 185.733 475.995 182.73 475.702 179.654C475.409 176.578 474.896 174.063 474.164 172.11C473.334 169.815 472.187 168.082 470.722 166.91C469.306 165.738 467.499 165.152 465.302 165.152C461.542 165.152 458.539 167.057 456.293 170.865C454.047 174.674 452.826 180.704 452.631 188.956L476.142 188.663ZM485.883 127.066C485.883 129.264 485.37 131.046 484.345 132.413C483.368 133.731 481.781 135.099 479.584 136.515C477.191 138.077 473.407 140.299 468.231 143.18C463.056 146.012 457.196 149.405 450.653 153.36L447.577 150.577C451.874 144.864 455.194 140.323 457.538 136.954C459.882 133.536 461.908 130.631 463.617 128.238C465.717 125.26 467.719 123.258 469.623 122.232C471.527 121.158 473.896 120.621 476.728 120.621C479.071 120.621 481.171 121.256 483.026 122.525C484.931 123.795 485.883 125.309 485.883 127.066Z" fill="#C17139"/>
</svg>
