<svg width="1440" height="820" viewBox="0 0 1440 820" fill="none" xmlns="http://www.w3.org/2000/svg">
<path d="M457.79 429.692C464.561 434.347 470.062 440.218 474.294 447.307C478.526 454.289 480.642 462.541 480.642 472.062C480.642 483.488 478.208 493.168 473.342 501.103C468.581 508.932 461.704 515.121 452.712 519.67C443.19 524.536 432.188 527.975 419.704 529.985C407.326 531.995 392.727 533 375.905 533H258.95V520.622C262.229 520.305 266.355 519.829 271.328 519.194C276.3 518.559 279.791 517.819 281.801 516.972C285.716 515.385 288.361 513.322 289.736 510.783C291.217 508.138 291.958 504.753 291.958 500.627V341.936C291.958 338.127 291.376 334.953 290.212 332.414C289.048 329.875 286.245 327.653 281.801 325.749C278.522 324.374 274.713 323.263 270.375 322.417C266.038 321.464 262.229 320.724 258.95 320.195V307.817H381.301C412.087 307.817 434.304 312.049 447.951 320.512C461.599 328.976 468.422 341.459 468.422 357.963C468.422 365.581 466.888 372.299 463.82 378.117C460.752 383.83 456.362 388.802 450.649 393.034C445.465 396.949 439.276 400.334 432.082 403.19C424.888 406.047 417.165 408.427 408.913 410.332V413.347C417.165 414.193 425.734 416.044 434.621 418.901C443.508 421.652 451.231 425.249 457.79 429.692ZM406.691 361.931C406.691 349.447 403.147 339.714 396.059 332.731C389.077 325.749 378.55 322.258 364.479 322.258C362.469 322.258 359.825 322.364 356.545 322.575C353.371 322.681 350.62 322.787 348.293 322.893V406.364H356.545C373.684 406.364 386.326 402.397 394.472 394.462C402.618 386.422 406.691 375.578 406.691 361.931ZM417.8 470C417.8 454.342 413.145 442.334 403.835 433.977C394.525 425.619 381.142 421.44 363.686 421.44C361.676 421.44 358.978 421.546 355.593 421.757C352.313 421.863 349.88 421.969 348.293 422.075V504.436C349.245 508.35 352.207 511.682 357.18 514.433C362.152 517.078 368.182 518.4 375.271 518.4C387.86 518.4 398.069 514.169 405.898 505.705C413.833 497.242 417.8 485.34 417.8 470ZM661.55 404.619C661.55 412.659 659.064 419.747 654.091 425.883C649.119 431.914 642.56 434.929 634.414 434.929C626.691 434.929 620.131 432.972 614.736 429.057C609.446 425.143 606.801 419.377 606.801 411.76C606.801 408.057 607.066 405.201 607.595 403.19C608.124 401.075 608.6 399.117 609.023 397.319C604.156 397.53 599.025 399.223 593.63 402.397C588.234 405.571 583.474 409.803 579.348 415.092V502.214C579.348 505.917 579.93 508.985 581.093 511.418C582.257 513.851 584.214 515.756 586.965 517.131C589.292 518.295 593.048 519.3 598.232 520.146C603.522 520.887 607.33 521.31 609.658 521.416V533H503.493V521.416C506.138 521.204 508.783 520.939 511.428 520.622C514.178 520.199 516.506 519.67 518.41 519.035C521.796 517.871 524.123 516.073 525.393 513.64C526.662 511.206 527.297 508.033 527.297 504.118V411.76C527.297 407.951 526.398 404.566 524.599 401.604C522.801 398.535 520.632 396.102 518.093 394.304C516.188 393.034 513.755 391.976 510.793 391.13C507.937 390.284 504.763 389.702 501.271 389.384V377.8L576.967 373.674L579.348 376.054V399.064H579.982C587.282 390.601 595.005 383.989 603.151 379.228C611.403 374.361 619.973 371.928 628.859 371.928C638.698 371.928 646.58 374.996 652.504 381.132C658.535 387.163 661.55 394.991 661.55 404.619ZM854.042 529.667C849.388 531.678 843.886 533.529 837.539 535.222C831.191 536.914 824.473 537.761 817.385 537.761C804.372 537.761 794.798 535.856 788.662 532.048C782.526 528.133 778.347 522.579 776.125 515.385H775.173C771.576 518.982 768.085 522.05 764.699 524.589C761.42 527.128 757.875 529.297 754.067 531.096C749.095 533.423 744.281 535.116 739.626 536.174C735.077 537.338 728.676 537.919 720.424 537.919C708.152 537.919 697.679 534.322 689.003 527.128C680.328 519.829 675.991 510.201 675.991 498.247C675.991 491.37 676.943 485.551 678.847 480.791C680.751 475.924 683.449 471.639 686.94 467.937C690.114 464.551 693.764 461.748 697.89 459.526C702.122 457.304 706.724 455.241 711.696 453.337C721.218 449.846 732.644 446.249 745.974 442.546C759.304 438.737 769.037 435.352 775.173 432.39V417.155C775.173 414.51 774.961 411.019 774.538 406.682C774.115 402.344 773.216 398.694 771.84 395.732C770.359 392.347 768.032 389.49 764.858 387.163C761.684 384.835 757.505 383.671 752.321 383.671C747.666 383.671 743.752 384.359 740.578 385.734C737.51 387.004 735.024 388.326 733.12 389.702C733.437 391.818 734.336 395.044 735.817 399.382C737.299 403.719 738.039 407.898 738.039 411.918C738.039 413.717 737.563 415.992 736.611 418.742C735.659 421.387 734.283 423.503 732.485 425.09C730.052 427.206 727.301 428.846 724.233 430.009C721.271 431.173 716.669 431.755 710.427 431.755C701.54 431.755 694.822 429.639 690.273 425.407C685.724 421.07 683.449 415.463 683.449 408.586C683.449 402.661 685.777 397.372 690.432 392.717C695.192 387.956 700.958 384.042 707.729 380.974C714.394 377.8 722.064 375.367 730.739 373.674C739.414 371.875 747.455 370.976 754.86 370.976C765.122 370.976 774.538 371.611 783.107 372.88C791.677 374.044 799.4 376.53 806.276 380.339C812.836 384.042 818.02 389.437 821.828 396.525C825.743 403.508 827.7 412.659 827.7 423.979C827.7 435.934 827.435 450.11 826.906 466.508C826.483 482.906 826.271 493.697 826.271 498.881C826.271 503.642 826.959 507.398 828.334 510.148C829.816 512.899 832.037 514.962 835 516.337C836.798 517.184 839.602 517.713 843.41 517.924C847.325 518.03 850.869 518.083 854.042 518.083V529.667ZM775.173 446.989C769.248 448.999 763.377 451.327 757.558 453.972C751.739 456.511 746.979 459.208 743.276 462.065C739.361 465.027 736.293 468.836 734.072 473.491C731.85 478.04 730.739 483.435 730.739 489.677C730.739 497.929 732.591 503.907 736.293 507.609C740.102 511.312 744.757 513.164 750.258 513.164C756.077 513.164 760.838 512 764.541 509.672C768.349 507.239 771.682 504.277 774.538 500.786L775.173 446.989ZM1016.38 314.165C1016.38 316.809 1015.96 319.719 1015.11 322.893C1014.27 326.066 1012.89 328.764 1010.99 330.986C1008.77 333.631 1006.28 335.641 1003.53 337.016C1000.78 338.391 996.653 339.079 991.152 339.079C982.794 339.079 976.235 336.17 971.474 330.351C966.713 324.532 961.635 314.852 956.24 301.311C952.008 303.109 948.57 307.764 945.925 315.275C943.28 322.787 941.958 338.92 941.958 363.676V376.213H985.756V393.352H942.275V502.69C942.275 506.816 943.227 510.043 945.131 512.37C947.036 514.592 949.522 516.232 952.59 517.29C955.129 518.136 958.461 518.982 962.587 519.829C966.713 520.569 970.416 521.098 973.696 521.416V533H866.579V521.416C869.33 521.204 871.975 520.939 874.514 520.622C877.159 520.305 879.486 519.776 881.496 519.035C884.882 517.766 887.156 515.967 888.32 513.64C889.589 511.206 890.224 508.033 890.224 504.118V393.352H858.01V376.213H890.224C890.224 364.893 891.864 353.943 895.144 343.364C898.423 332.679 903.501 323.157 910.378 314.799C917.043 306.547 925.824 299.882 936.721 294.804C947.618 289.726 960.419 287.187 975.124 287.187C988.243 287.187 998.399 289.673 1005.59 294.646C1012.79 299.618 1016.38 306.124 1016.38 314.165ZM1164.76 495.073C1161.06 501.103 1156.56 506.816 1151.27 512.211C1146.09 517.501 1140.16 522.05 1133.5 525.859C1126.41 529.879 1119.22 532.894 1111.92 534.904C1104.72 537.02 1096.42 538.078 1087 538.078C1071.34 538.078 1057.8 535.856 1046.38 531.413C1035.06 526.97 1025.69 520.992 1018.29 513.481C1010.88 505.97 1005.33 497.136 1001.63 486.979C998.028 476.717 996.23 465.609 996.23 453.654C996.23 442.863 998.187 432.548 1002.1 422.709C1006.12 412.765 1011.78 403.931 1019.08 396.208C1026.28 388.697 1035.32 382.613 1046.22 377.958C1057.22 373.304 1069.49 370.976 1083.03 370.976C1097.85 370.976 1110.01 372.775 1119.53 376.372C1129.05 379.969 1136.94 384.941 1143.18 391.289C1149.21 397.319 1153.6 404.46 1156.35 412.712C1159.1 420.858 1160.48 429.427 1160.48 438.42V448.735H1053.2C1053.2 470.423 1057.38 486.927 1065.74 498.247C1074.09 509.567 1087.37 515.227 1105.57 515.227C1115.51 515.227 1124.45 512.529 1132.39 507.133C1140.32 501.632 1147.09 494.702 1152.7 486.345L1164.76 495.073ZM1104.14 434.77C1104.14 428.422 1103.82 421.916 1103.19 415.251C1102.55 408.586 1101.44 403.138 1099.86 398.906C1098.06 393.933 1095.57 390.178 1092.4 387.639C1089.33 385.1 1085.41 383.83 1080.65 383.83C1072.51 383.83 1066 387.956 1061.13 396.208C1056.27 404.46 1053.62 417.526 1053.2 435.405L1104.14 434.77ZM1125.25 301.311C1125.25 306.071 1124.14 309.933 1121.91 312.895C1119.8 315.751 1116.36 318.714 1111.6 321.782C1106.41 325.167 1098.22 329.981 1087 336.223C1075.79 342.359 1063.09 349.711 1048.92 358.281L1042.25 352.25C1051.56 339.873 1058.75 330.034 1063.83 322.734C1068.91 315.328 1073.3 309.034 1077 303.85C1081.55 297.396 1085.89 293.059 1090.02 290.837C1094.14 288.509 1099.27 287.346 1105.41 287.346C1110.49 287.346 1115.04 288.721 1119.06 291.472C1123.18 294.222 1125.25 297.502 1125.25 301.311Z" fill="#C17139"/>
<mask id="path-2-inside-1" fill="white">
<rect width="1440" height="820" rx="10"/>
</mask>
<rect width="1440" height="820" rx="10" stroke="#C17139" stroke-width="120" mask="url(#path-2-inside-1)"/>
</svg>
