<svg width="1173" height="424" viewBox="0 0 1173 424" fill="none" xmlns="http://www.w3.org/2000/svg">
<path d="M350.652 205.639C356.902 209.936 361.98 215.355 365.887 221.898C369.793 228.344 371.746 235.961 371.746 244.75C371.746 255.297 369.5 264.232 365.008 271.557C360.613 278.783 354.266 284.496 345.965 288.695C337.176 293.188 327.02 296.361 315.496 298.217C304.07 300.072 290.594 301 275.066 301H167.107V289.574C170.135 289.281 173.943 288.842 178.533 288.256C183.123 287.67 186.346 286.986 188.201 286.205C191.814 284.74 194.256 282.836 195.525 280.492C196.893 278.051 197.576 274.926 197.576 271.117V124.633C197.576 121.117 197.039 118.188 195.965 115.844C194.891 113.5 192.303 111.449 188.201 109.691C185.174 108.422 181.658 107.396 177.654 106.615C173.65 105.736 170.135 105.053 167.107 104.564V93.1387H280.047C308.465 93.1387 328.973 97.0449 341.57 104.857C354.168 112.67 360.467 124.193 360.467 139.428C360.467 146.459 359.051 152.66 356.219 158.031C353.387 163.305 349.334 167.895 344.061 171.801C339.275 175.414 333.562 178.539 326.922 181.176C320.281 183.812 313.152 186.01 305.535 187.768V190.551C313.152 191.332 321.062 193.041 329.266 195.678C337.469 198.217 344.598 201.537 350.652 205.639ZM303.484 143.09C303.484 131.566 300.213 122.582 293.67 116.137C287.225 109.691 277.508 106.469 264.52 106.469C262.664 106.469 260.223 106.566 257.195 106.762C254.266 106.859 251.727 106.957 249.578 107.055V184.105H257.195C273.016 184.105 284.686 180.443 292.205 173.119C299.725 165.697 303.484 155.688 303.484 143.09ZM313.738 242.846C313.738 228.393 309.441 217.309 300.848 209.594C292.254 201.879 279.9 198.021 263.787 198.021C261.932 198.021 259.441 198.119 256.316 198.314C253.289 198.412 251.043 198.51 249.578 198.607V274.633C250.457 278.246 253.191 281.322 257.781 283.861C262.371 286.303 267.938 287.523 274.48 287.523C286.102 287.523 295.525 283.617 302.752 275.805C310.076 267.992 313.738 257.006 313.738 242.846ZM538.738 182.494C538.738 189.916 536.443 196.459 531.854 202.123C527.264 207.689 521.209 210.473 513.689 210.473C506.561 210.473 500.506 208.666 495.525 205.053C490.643 201.439 488.201 196.117 488.201 189.086C488.201 185.668 488.445 183.031 488.934 181.176C489.422 179.223 489.861 177.416 490.252 175.756C485.76 175.951 481.023 177.514 476.043 180.443C471.062 183.373 466.668 187.279 462.859 192.162V272.582C462.859 276 463.396 278.832 464.471 281.078C465.545 283.324 467.352 285.082 469.891 286.352C472.039 287.426 475.506 288.354 480.291 289.135C485.174 289.818 488.689 290.209 490.838 290.307V301H392.84V290.307C395.281 290.111 397.723 289.867 400.164 289.574C402.703 289.184 404.852 288.695 406.609 288.109C409.734 287.035 411.883 285.375 413.055 283.129C414.227 280.883 414.812 277.953 414.812 274.34V189.086C414.812 185.57 413.982 182.445 412.322 179.711C410.662 176.879 408.66 174.633 406.316 172.973C404.559 171.801 402.312 170.824 399.578 170.043C396.941 169.262 394.012 168.725 390.789 168.432V157.738L460.662 153.93L462.859 156.127V177.367H463.445C470.184 169.555 477.312 163.451 484.832 159.057C492.449 154.564 500.359 152.318 508.562 152.318C517.645 152.318 524.92 155.15 530.389 160.814C535.955 166.381 538.738 173.607 538.738 182.494ZM716.424 297.924C712.127 299.779 707.049 301.488 701.189 303.051C695.33 304.613 689.129 305.395 682.586 305.395C670.574 305.395 661.736 303.637 656.072 300.121C650.408 296.508 646.551 291.381 644.5 284.74H643.621C640.301 288.061 637.078 290.893 633.953 293.236C630.926 295.58 627.654 297.582 624.139 299.242C619.549 301.391 615.105 302.953 610.809 303.93C606.609 305.004 600.701 305.541 593.084 305.541C581.756 305.541 572.088 302.221 564.08 295.58C556.072 288.842 552.068 279.955 552.068 268.92C552.068 262.572 552.947 257.201 554.705 252.807C556.463 248.314 558.953 244.359 562.176 240.941C565.105 237.816 568.475 235.229 572.283 233.178C576.189 231.127 580.438 229.223 585.027 227.465C593.816 224.242 604.363 220.922 616.668 217.504C628.973 213.988 637.957 210.863 643.621 208.129V194.066C643.621 191.625 643.426 188.402 643.035 184.398C642.645 180.395 641.814 177.025 640.545 174.291C639.178 171.166 637.029 168.529 634.1 166.381C631.17 164.232 627.312 163.158 622.527 163.158C618.23 163.158 614.617 163.793 611.688 165.062C608.855 166.234 606.561 167.455 604.803 168.725C605.096 170.678 605.926 173.656 607.293 177.66C608.66 181.664 609.344 185.521 609.344 189.232C609.344 190.893 608.904 192.992 608.025 195.531C607.146 197.973 605.877 199.926 604.217 201.391C601.971 203.344 599.432 204.857 596.6 205.932C593.865 207.006 589.617 207.543 583.855 207.543C575.652 207.543 569.451 205.59 565.252 201.684C561.053 197.68 558.953 192.504 558.953 186.156C558.953 180.688 561.102 175.805 565.398 171.508C569.793 167.113 575.115 163.5 581.365 160.668C587.518 157.738 594.598 155.492 602.605 153.93C610.613 152.27 618.035 151.439 624.871 151.439C634.344 151.439 643.035 152.025 650.945 153.197C658.855 154.271 665.984 156.566 672.332 160.082C678.387 163.5 683.172 168.48 686.688 175.023C690.301 181.469 692.107 189.916 692.107 200.365C692.107 211.4 691.863 224.486 691.375 239.623C690.984 254.76 690.789 264.721 690.789 269.506C690.789 273.9 691.424 277.367 692.693 279.906C694.061 282.445 696.111 284.35 698.846 285.619C700.506 286.4 703.094 286.889 706.609 287.084C710.223 287.182 713.494 287.23 716.424 287.23V297.924ZM643.621 221.605C638.152 223.461 632.732 225.609 627.361 228.051C621.99 230.395 617.596 232.885 614.178 235.521C610.564 238.256 607.732 241.771 605.682 246.068C603.631 250.268 602.605 255.248 602.605 261.01C602.605 268.627 604.314 274.145 607.732 277.562C611.248 280.98 615.545 282.689 620.623 282.689C625.994 282.689 630.389 281.615 633.807 279.467C637.322 277.221 640.398 274.486 643.035 271.264L643.621 221.605ZM866.277 98.998C866.277 101.439 865.887 104.125 865.105 107.055C864.324 109.984 863.055 112.475 861.297 114.525C859.246 116.967 856.951 118.822 854.412 120.092C851.873 121.361 848.064 121.996 842.986 121.996C835.271 121.996 829.217 119.311 824.822 113.939C820.428 108.568 815.74 99.6328 810.76 87.1328C806.854 88.793 803.68 93.0898 801.238 100.023C798.797 106.957 797.576 121.85 797.576 144.701V156.273H838.006V172.094H797.869V273.021C797.869 276.83 798.748 279.809 800.506 281.957C802.264 284.008 804.559 285.521 807.391 286.498C809.734 287.279 812.811 288.061 816.619 288.842C820.428 289.525 823.846 290.014 826.873 290.307V301H727.996V290.307C730.535 290.111 732.977 289.867 735.32 289.574C737.762 289.281 739.91 288.793 741.766 288.109C744.891 286.938 746.99 285.277 748.064 283.129C749.236 280.883 749.822 277.953 749.822 274.34V172.094H720.086V156.273H749.822C749.822 145.824 751.336 135.717 754.363 125.951C757.391 116.088 762.078 107.299 768.426 99.584C774.578 91.9668 782.684 85.8145 792.742 81.127C802.801 76.4395 814.617 74.0957 828.191 74.0957C840.301 74.0957 849.676 76.3906 856.316 80.9805C862.957 85.5703 866.277 91.5762 866.277 98.998ZM1003.24 265.99C999.822 271.557 995.672 276.83 990.789 281.811C986.004 286.693 980.535 290.893 974.383 294.408C967.84 298.119 961.199 300.902 954.461 302.758C947.82 304.711 940.154 305.688 931.463 305.688C917.01 305.688 904.51 303.637 893.963 299.535C883.514 295.434 874.871 289.916 868.035 282.982C861.199 276.049 856.072 267.895 852.654 258.52C849.334 249.047 847.674 238.793 847.674 227.758C847.674 217.797 849.48 208.275 853.094 199.193C856.805 190.014 862.029 181.859 868.768 174.73C875.408 167.797 883.758 162.182 893.816 157.885C903.973 153.588 915.301 151.439 927.801 151.439C941.473 151.439 952.703 153.1 961.492 156.42C970.281 159.74 977.557 164.33 983.318 170.189C988.885 175.756 992.938 182.348 995.477 189.965C998.016 197.484 999.285 205.395 999.285 213.695V223.217H900.262C900.262 243.236 904.119 258.471 911.834 268.92C919.549 279.369 931.805 284.594 948.602 284.594C957.781 284.594 966.033 282.104 973.357 277.123C980.682 272.045 986.932 265.648 992.107 257.934L1003.24 265.99ZM947.283 210.326C947.283 204.467 946.99 198.461 946.404 192.309C945.818 186.156 944.793 181.127 943.328 177.221C941.668 172.631 939.373 169.164 936.443 166.82C933.611 164.477 929.998 163.305 925.604 163.305C918.084 163.305 912.078 167.113 907.586 174.73C903.094 182.348 900.652 194.408 900.262 210.912L947.283 210.326ZM966.766 87.1328C966.766 91.5273 965.74 95.0918 963.689 97.8262C961.736 100.463 958.562 103.197 954.168 106.029C949.383 109.154 941.814 113.598 931.463 119.359C921.111 125.023 909.393 131.811 896.307 139.721L890.154 134.154C898.748 122.729 905.389 113.646 910.076 106.908C914.764 100.072 918.816 94.2617 922.234 89.4766C926.434 83.5195 930.438 79.5156 934.246 77.4648C938.055 75.3164 942.791 74.2422 948.455 74.2422C953.143 74.2422 957.342 75.5117 961.053 78.0508C964.861 80.5898 966.766 83.6172 966.766 87.1328Z" fill="black"/>
<rect x="15" y="15" width="1143" height="394" stroke="black" stroke-width="30"/>
</svg>
